# xmcd
#
# Track frame offsets: 
#        150
#        25948
#        53297
#        79633
#        100705
#        123881
#        129462
#        142282
#        179545
#
# Disc length: 2766 seconds
#
# Revision: 1
# Processed by: cddbd v1.5.2PL0 Copyright (c) Steve Scherf et al.
# Submitted via: ExactAudioCopy v0.99pb4
#
DISCID=6f0acc09
DTITLE=Cesar Lopez y Habana Ensemble - Andante
DYEAR=2005
DGENRE=Jazz
TTITLE0=Pitacatan
TTITLE1=Santa Cruz
TTITLE2=How deep is your love
TTITLE3=Picadilly
TTITLE4=Geishas en la Habana
TTITLE5=Mpumalanga
TTITLE6=Kelembe
TTITLE7=Tribute to Stevie Wonder
TTITLE8=Sapo que rueda
EXTD=YEAR: 2005
EXTT0=
EXTT1=
EXTT2=
EXTT3=
EXTT4=
EXTT5=
EXTT6=
EXTT7=
EXTT8=
PLAYORDER=
